<?xml version="1.0" encoding="UTF-8"?>
<mxfile host="app.diagrams.net" modified="2025-07-14T12:00:00.000Z" agent="5.0" etag="xxx" version="21.6.8" type="device">
  <diagram id="database-structure" name="Database Structure">
    <mxGraphModel dx="1422" dy="794" grid="1" gridSize="10" guides="1" tooltips="1" connect="1" arrows="1" fold="1" page="1" pageScale="1" pageWidth="1169" pageHeight="827" math="0" shadow="0">
      <root>
        <mxCell id="0" />
        <mxCell id="1" parent="0" />
        
        <!-- Users Table -->
        <mxCell id="users-table" value="users" style="swimlane;fontStyle=1;align=center;verticalAlign=top;childLayout=stackLayout;horizontal=1;startSize=26;horizontalStack=0;resizeParent=1;resizeParentMax=0;resizeLast=0;collapsible=1;marginBottom=0;fillColor=#fff2cc;strokeColor=#d6b656;" vertex="1" parent="1">
          <mxGeometry x="50" y="50" width="160" height="180" as="geometry" />
        </mxCell>
        <mxCell id="users-id" value="ðŸ”‘ id (bigint)" style="text;strokeColor=none;fillColor=none;align=left;verticalAlign=top;spacingLeft=4;spacingRight=4;overflow=hidden;rotatable=0;points=[[0,0.5],[1,0.5]];portConstraint=eastwest;fontStyle=1" vertex="1" parent="users-table">
          <mxGeometry y="26" width="160" height="22" as="geometry" />
        </mxCell>
        <mxCell id="users-name" value="name (varchar)" style="text;strokeColor=none;fillColor=none;align=left;verticalAlign=top;spacingLeft=4;spacingRight=4;overflow=hidden;rotatable=0;points=[[0,0.5],[1,0.5]];portConstraint=eastwest;" vertex="1" parent="users-table">
          <mxGeometry y="48" width="160" height="22" as="geometry" />
        </mxCell>
        <mxCell id="users-email" value="email (varchar)" style="text;strokeColor=none;fillColor=none;align=left;verticalAlign=top;spacingLeft=4;spacingRight=4;overflow=hidden;rotatable=0;points=[[0,0.5],[1,0.5]];portConstraint=eastwest;" vertex="1" parent="users-table">
          <mxGeometry y="70" width="160" height="22" as="geometry" />
        </mxCell>
        <mxCell id="users-password" value="password (varchar)" style="text;strokeColor=none;fillColor=none;align=left;verticalAlign=top;spacingLeft=4;spacingRight=4;overflow=hidden;rotatable=0;points=[[0,0.5],[1,0.5]];portConstraint=eastwest;" vertex="1" parent="users-table">
          <mxGeometry y="92" width="160" height="22" as="geometry" />
        </mxCell>
        <mxCell id="users-deleted" value="deleted_at (timestamp)" style="text;strokeColor=none;fillColor=none;align=left;verticalAlign=top;spacingLeft=4;spacingRight=4;overflow=hidden;rotatable=0;points=[[0,0.5],[1,0.5]];portConstraint=eastwest;" vertex="1" parent="users-table">
          <mxGeometry y="114" width="160" height="22" as="geometry" />
        </mxCell>
        <mxCell id="users-created" value="created_at (timestamp)" style="text;strokeColor=none;fillColor=none;align=left;verticalAlign=top;spacingLeft=4;spacingRight=4;overflow=hidden;rotatable=0;points=[[0,0.5],[1,0.5]];portConstraint=eastwest;" vertex="1" parent="users-table">
          <mxGeometry y="136" width="160" height="22" as="geometry" />
        </mxCell>
        <mxCell id="users-updated" value="updated_at (timestamp)" style="text;strokeColor=none;fillColor=none;align=left;verticalAlign=top;spacingLeft=4;spacingRight=4;overflow=hidden;rotatable=0;points=[[0,0.5],[1,0.5]];portConstraint=eastwest;" vertex="1" parent="users-table">
          <mxGeometry y="158" width="160" height="22" as="geometry" />
        </mxCell>

        <!-- Residents Table -->
        <mxCell id="residents-table" value="residents" style="swimlane;fontStyle=1;align=center;verticalAlign=top;childLayout=stackLayout;horizontal=1;startSize=26;horizontalStack=0;resizeParent=1;resizeParentMax=0;resizeLast=0;collapsible=1;marginBottom=0;fillColor=#d5e8d4;strokeColor=#82b366;" vertex="1" parent="1">
          <mxGeometry x="280" y="50" width="160" height="158" as="geometry" />
        </mxCell>
        <mxCell id="residents-id" value="ðŸ”‘ id (bigint)" style="text;strokeColor=none;fillColor=none;align=left;verticalAlign=top;spacingLeft=4;spacingRight=4;overflow=hidden;rotatable=0;points=[[0,0.5],[1,0.5]];portConstraint=eastwest;fontStyle=1" vertex="1" parent="residents-table">
          <mxGeometry y="26" width="160" height="22" as="geometry" />
        </mxCell>
        <mxCell id="residents-user-id" value="ðŸ”— user_id (bigint)" style="text;strokeColor=none;fillColor=none;align=left;verticalAlign=top;spacingLeft=4;spacingRight=4;overflow=hidden;rotatable=0;points=[[0,0.5],[1,0.5]];portConstraint=eastwest;fontStyle=2" vertex="1" parent="residents-table">
          <mxGeometry y="48" width="160" height="22" as="geometry" />
        </mxCell>
        <mxCell id="residents-avatar" value="avatar (varchar)" style="text;strokeColor=none;fillColor=none;align=left;verticalAlign=top;spacingLeft=4;spacingRight=4;overflow=hidden;rotatable=0;points=[[0,0.5],[1,0.5]];portConstraint=eastwest;" vertex="1" parent="residents-table">
          <mxGeometry y="70" width="160" height="22" as="geometry" />
        </mxCell>
        <mxCell id="residents-phone" value="phone_number (varchar)" style="text;strokeColor=none;fillColor=none;align=left;verticalAlign=top;spacingLeft=4;spacingRight=4;overflow=hidden;rotatable=0;points=[[0,0.5],[1,0.5]];portConstraint=eastwest;" vertex="1" parent="residents-table">
          <mxGeometry y="92" width="160" height="22" as="geometry" />
        </mxCell>
        <mxCell id="residents-deleted" value="deleted_at (timestamp)" style="text;strokeColor=none;fillColor=none;align=left;verticalAlign=top;spacingLeft=4;spacingRight=4;overflow=hidden;rotatable=0;points=[[0,0.5],[1,0.5]];portConstraint=eastwest;" vertex="1" parent="residents-table">
          <mxGeometry y="114" width="160" height="22" as="geometry" />
        </mxCell>
        <mxCell id="residents-created" value="created_at (timestamp)" style="text;strokeColor=none;fillColor=none;align=left;verticalAlign=top;spacingLeft=4;spacingRight=4;overflow=hidden;rotatable=0;points=[[0,0.5],[1,0.5]];portConstraint=eastwest;" vertex="1" parent="residents-table">
          <mxGeometry y="136" width="160" height="22" as="geometry" />
        </mxCell>

        <!-- Report Categories Table -->
        <mxCell id="categories-table" value="report_categories" style="swimlane;fontStyle=1;align=center;verticalAlign=top;childLayout=stackLayout;horizontal=1;startSize=26;horizontalStack=0;resizeParent=1;resizeParentMax=0;resizeLast=0;collapsible=1;marginBottom=0;fillColor=#f8cecc;strokeColor=#b85450;" vertex="1" parent="1">
          <mxGeometry x="50" y="280" width="160" height="136" as="geometry" />
        </mxCell>
        <mxCell id="categories-id" value="ðŸ”‘ id (bigint)" style="text;strokeColor=none;fillColor=none;align=left;verticalAlign=top;spacingLeft=4;spacingRight=4;overflow=hidden;rotatable=0;points=[[0,0.5],[1,0.5]];portConstraint=eastwest;fontStyle=1" vertex="1" parent="categories-table">
          <mxGeometry y="26" width="160" height="22" as="geometry" />
        </mxCell>
        <mxCell id="categories-name" value="name (varchar)" style="text;strokeColor=none;fillColor=none;align=left;verticalAlign=top;spacingLeft=4;spacingRight=4;overflow=hidden;rotatable=0;points=[[0,0.5],[1,0.5]];portConstraint=eastwest;" vertex="1" parent="categories-table">
          <mxGeometry y="48" width="160" height="22" as="geometry" />
        </mxCell>
        <mxCell id="categories-image" value="image (varchar)" style="text;strokeColor=none;fillColor=none;align=left;verticalAlign=top;spacingLeft=4;spacingRight=4;overflow=hidden;rotatable=0;points=[[0,0.5],[1,0.5]];portConstraint=eastwest;" vertex="1" parent="categories-table">
          <mxGeometry y="70" width="160" height="22" as="geometry" />
        </mxCell>
        <mxCell id="categories-deleted" value="deleted_at (timestamp)" style="text;strokeColor=none;fillColor=none;align=left;verticalAlign=top;spacingLeft=4;spacingRight=4;overflow=hidden;rotatable=0;points=[[0,0.5],[1,0.5]];portConstraint=eastwest;" vertex="1" parent="categories-table">
          <mxGeometry y="92" width="160" height="22" as="geometry" />
        </mxCell>
        <mxCell id="categories-created" value="created_at (timestamp)" style="text;strokeColor=none;fillColor=none;align=left;verticalAlign=top;spacingLeft=4;spacingRight=4;overflow=hidden;rotatable=0;points=[[0,0.5],[1,0.5]];portConstraint=eastwest;" vertex="1" parent="categories-table">
          <mxGeometry y="114" width="160" height="22" as="geometry" />
        </mxCell>

        <!-- Reports Table -->
        <mxCell id="reports-table" value="reports" style="swimlane;fontStyle=1;align=center;verticalAlign=top;childLayout=stackLayout;horizontal=1;startSize=26;horizontalStack=0;resizeParent=1;resizeParentMax=0;resizeLast=0;collapsible=1;marginBottom=0;fillColor=#dae8fc;strokeColor=#6c8ebf;" vertex="1" parent="1">
          <mxGeometry x="280" y="280" width="180" height="290" as="geometry" />
        </mxCell>
        <mxCell id="reports-id" value="ðŸ”‘ id (bigint)" style="text;strokeColor=none;fillColor=none;align=left;verticalAlign=top;spacingLeft=4;spacingRight=4;overflow=hidden;rotatable=0;points=[[0,0.5],[1,0.5]];portConstraint=eastwest;fontStyle=1" vertex="1" parent="reports-table">
          <mxGeometry y="26" width="180" height="22" as="geometry" />
        </mxCell>
        <mxCell id="reports-code" value="code (varchar)" style="text;strokeColor=none;fillColor=none;align=left;verticalAlign=top;spacingLeft=4;spacingRight=4;overflow=hidden;rotatable=0;points=[[0,0.5],[1,0.5]];portConstraint=eastwest;" vertex="1" parent="reports-table">
          <mxGeometry y="48" width="180" height="22" as="geometry" />
        </mxCell>
        <mxCell id="reports-resident-id" value="ðŸ”— resident_id (bigint)" style="text;strokeColor=none;fillColor=none;align=left;verticalAlign=top;spacingLeft=4;spacingRight=4;overflow=hidden;rotatable=0;points=[[0,0.5],[1,0.5]];portConstraint=eastwest;fontStyle=2" vertex="1" parent="reports-table">
          <mxGeometry y="70" width="180" height="22" as="geometry" />
        </mxCell>
        <mxCell id="reports-category-id" value="ðŸ”— report_category_id (bigint)" style="text;strokeColor=none;fillColor=none;align=left;verticalAlign=top;spacingLeft=4;spacingRight=4;overflow=hidden;rotatable=0;points=[[0,0.5],[1,0.5]];portConstraint=eastwest;fontStyle=2" vertex="1" parent="reports-table">
          <mxGeometry y="92" width="180" height="22" as="geometry" />
        </mxCell>
        <mxCell id="reports-title" value="title (varchar)" style="text;strokeColor=none;fillColor=none;align=left;verticalAlign=top;spacingLeft=4;spacingRight=4;overflow=hidden;rotatable=0;points=[[0,0.5],[1,0.5]];portConstraint=eastwest;" vertex="1" parent="reports-table">
          <mxGeometry y="114" width="180" height="22" as="geometry" />
        </mxCell>
        <mxCell id="reports-desc" value="description (text)" style="text;strokeColor=none;fillColor=none;align=left;verticalAlign=top;spacingLeft=4;spacingRight=4;overflow=hidden;rotatable=0;points=[[0,0.5],[1,0.5]];portConstraint=eastwest;" vertex="1" parent="reports-table">
          <mxGeometry y="136" width="180" height="22" as="geometry" />
        </mxCell>
        <mxCell id="reports-image" value="image (varchar)" style="text;strokeColor=none;fillColor=none;align=left;verticalAlign=top;spacingLeft=4;spacingRight=4;overflow=hidden;rotatable=0;points=[[0,0.5],[1,0.5]];portConstraint=eastwest;" vertex="1" parent="reports-table">
          <mxGeometry y="158" width="180" height="22" as="geometry" />
        </mxCell>
        <mxCell id="reports-lat" value="latitude (decimal)" style="text;strokeColor=none;fillColor=none;align=left;verticalAlign=top;spacingLeft=4;spacingRight=4;overflow=hidden;rotatable=0;points=[[0,0.5],[1,0.5]];portConstraint=eastwest;" vertex="1" parent="reports-table">
          <mxGeometry y="180" width="180" height="22" as="geometry" />
        </mxCell>
        <mxCell id="reports-lng" value="longitude (decimal)" style="text;strokeColor=none;fillColor=none;align=left;verticalAlign=top;spacingLeft=4;spacingRight=4;overflow=hidden;rotatable=0;points=[[0,0.5],[1,0.5]];portConstraint=eastwest;" vertex="1" parent="reports-table">
          <mxGeometry y="202" width="180" height="22" as="geometry" />
        </mxCell>
        <mxCell id="reports-address" value="address (varchar)" style="text;strokeColor=none;fillColor=none;align=left;verticalAlign=top;spacingLeft=4;spacingRight=4;overflow=hidden;rotatable=0;points=[[0,0.5],[1,0.5]];portConstraint=eastwest;" vertex="1" parent="reports-table">
          <mxGeometry y="224" width="180" height="22" as="geometry" />
        </mxCell>
        <mxCell id="reports-urgency" value="urgency_level (varchar)" style="text;strokeColor=none;fillColor=none;align=left;verticalAlign=top;spacingLeft=4;spacingRight=4;overflow=hidden;rotatable=0;points=[[0,0.5],[1,0.5]];portConstraint=eastwest;" vertex="1" parent="reports-table">
          <mxGeometry y="246" width="180" height="22" as="geometry" />
        </mxCell>
        <mxCell id="reports-initial" value="initial_urgency (varchar)" style="text;strokeColor=none;fillColor=none;align=left;verticalAlign=top;spacingLeft=4;spacingRight=4;overflow=hidden;rotatable=0;points=[[0,0.5],[1,0.5]];portConstraint=eastwest;" vertex="1" parent="reports-table">
          <mxGeometry y="268" width="180" height="22" as="geometry" />
        </mxCell>

        <!-- Report Statuses Table -->
        <mxCell id="statuses-table" value="report_statuses" style="swimlane;fontStyle=1;align=center;verticalAlign=top;childLayout=stackLayout;horizontal=1;startSize=26;horizontalStack=0;resizeParent=1;resizeParentMax=0;resizeLast=0;collapsible=1;marginBottom=0;fillColor=#e1d5e7;strokeColor=#9673a6;" vertex="1" parent="1">
          <mxGeometry x="520" y="280" width="160" height="158" as="geometry" />
        </mxCell>
        <mxCell id="statuses-id" value="ðŸ”‘ id (bigint)" style="text;strokeColor=none;fillColor=none;align=left;verticalAlign=top;spacingLeft=4;spacingRight=4;overflow=hidden;rotatable=0;points=[[0,0.5],[1,0.5]];portConstraint=eastwest;fontStyle=1" vertex="1" parent="statuses-table">
          <mxGeometry y="26" width="160" height="22" as="geometry" />
        </mxCell>
        <mxCell id="statuses-report-id" value="ðŸ”— report_id (bigint)" style="text;strokeColor=none;fillColor=none;align=left;verticalAlign=top;spacingLeft=4;spacingRight=4;overflow=hidden;rotatable=0;points=[[0,0.5],[1,0.5]];portConstraint=eastwest;fontStyle=2" vertex="1" parent="statuses-table">
          <mxGeometry y="48" width="160" height="22" as="geometry" />
        </mxCell>
        <mxCell id="statuses-image" value="image (varchar)" style="text;strokeColor=none;fillColor=none;align=left;verticalAlign=top;spacingLeft=4;spacingRight=4;overflow=hidden;rotatable=0;points=[[0,0.5],[1,0.5]];portConstraint=eastwest;" vertex="1" parent="statuses-table">
          <mxGeometry y="70" width="160" height="22" as="geometry" />
        </mxCell>
        <mxCell id="statuses-status" value="statuses (varchar)" style="text;strokeColor=none;fillColor=none;align=left;verticalAlign=top;spacingLeft=4;spacingRight=4;overflow=hidden;rotatable=0;points=[[0,0.5],[1,0.5]];portConstraint=eastwest;" vertex="1" parent="statuses-table">
          <mxGeometry y="92" width="160" height="22" as="geometry" />
        </mxCell>
        <mxCell id="statuses-desc" value="description (text)" style="text;strokeColor=none;fillColor=none;align=left;verticalAlign=top;spacingLeft=4;spacingRight=4;overflow=hidden;rotatable=0;points=[[0,0.5],[1,0.5]];portConstraint=eastwest;" vertex="1" parent="statuses-table">
          <mxGeometry y="114" width="160" height="22" as="geometry" />
        </mxCell>
        <mxCell id="statuses-deleted" value="deleted_at (timestamp)" style="text;strokeColor=none;fillColor=none;align=left;verticalAlign=top;spacingLeft=4;spacingRight=4;overflow=hidden;rotatable=0;points=[[0,0.5],[1,0.5]];portConstraint=eastwest;" vertex="1" parent="statuses-table">
          <mxGeometry y="136" width="160" height="22" as="geometry" />
        </mxCell>

        <!-- Roles Table -->
        <mxCell id="roles-table" value="roles" style="swimlane;fontStyle=1;align=center;verticalAlign=top;childLayout=stackLayout;horizontal=1;startSize=26;horizontalStack=0;resizeParent=1;resizeParentMax=0;resizeLast=0;collapsible=1;marginBottom=0;fillColor=#ffcccc;strokeColor=#b85450;" vertex="1" parent="1">
          <mxGeometry x="50" y="450" width="160" height="114" as="geometry" />
        </mxCell>
        <mxCell id="roles-id" value="ðŸ”‘ id (bigint)" style="text;strokeColor=none;fillColor=none;align=left;verticalAlign=top;spacingLeft=4;spacingRight=4;overflow=hidden;rotatable=0;points=[[0,0.5],[1,0.5]];portConstraint=eastwest;fontStyle=1" vertex="1" parent="roles-table">
          <mxGeometry y="26" width="160" height="22" as="geometry" />
        </mxCell>
        <mxCell id="roles-name" value="name (varchar)" style="text;strokeColor=none;fillColor=none;align=left;verticalAlign=top;spacingLeft=4;spacingRight=4;overflow=hidden;rotatable=0;points=[[0,0.5],[1,0.5]];portConstraint=eastwest;" vertex="1" parent="roles-table">
          <mxGeometry y="48" width="160" height="22" as="geometry" />
        </mxCell>
        <mxCell id="roles-guard" value="guard_name (varchar)" style="text;strokeColor=none;fillColor=none;align=left;verticalAlign=top;spacingLeft=4;spacingRight=4;overflow=hidden;rotatable=0;points=[[0,0.5],[1,0.5]];portConstraint=eastwest;" vertex="1" parent="roles-table">
          <mxGeometry y="70" width="160" height="22" as="geometry" />
        </mxCell>
        <mxCell id="roles-created" value="created_at (timestamp)" style="text;strokeColor=none;fillColor=none;align=left;verticalAlign=top;spacingLeft=4;spacingRight=4;overflow=hidden;rotatable=0;points=[[0,0.5],[1,0.5]];portConstraint=eastwest;" vertex="1" parent="roles-table">
          <mxGeometry y="92" width="160" height="22" as="geometry" />
        </mxCell>

        <!-- Feedback Table -->
        <mxCell id="feedback-table" value="feedback" style="swimlane;fontStyle=1;align=center;verticalAlign=top;childLayout=stackLayout;horizontal=1;startSize=26;horizontalStack=0;resizeParent=1;resizeParentMax=0;resizeLast=0;collapsible=1;marginBottom=0;fillColor=#ffe6cc;strokeColor=#d79b00;" vertex="1" parent="1">
          <mxGeometry x="520" y="50" width="160" height="180" as="geometry" />
        </mxCell>
        <mxCell id="feedback-id" value="ðŸ”‘ id (bigint)" style="text;strokeColor=none;fillColor=none;align=left;verticalAlign=top;spacingLeft=4;spacingRight=4;overflow=hidden;rotatable=0;points=[[0,0.5],[1,0.5]];portConstraint=eastwest;fontStyle=1" vertex="1" parent="feedback-table">
          <mxGeometry y="26" width="160" height="22" as="geometry" />
        </mxCell>
        <mxCell id="feedback-report-id" value="ðŸ”— report_id (bigint)" style="text;strokeColor=none;fillColor=none;align=left;verticalAlign=top;spacingLeft=4;spacingRight=4;overflow=hidden;rotatable=0;points=[[0,0.5],[1,0.5]];portConstraint=eastwest;fontStyle=2" vertex="1" parent="feedback-table">
          <mxGeometry y="48" width="160" height="22" as="geometry" />
        </mxCell>
        <mxCell id="feedback-user-id" value="ðŸ”— user_id (bigint)" style="text;strokeColor=none;fillColor=none;align=left;verticalAlign=top;spacingLeft=4;spacingRight=4;overflow=hidden;rotatable=0;points=[[0,0.5],[1,0.5]];portConstraint=eastwest;fontStyle=2" vertex="1" parent="feedback-table">
          <mxGeometry y="70" width="160" height="22" as="geometry" />
        </mxCell>
        <mxCell id="feedback-impression" value="impression (varchar)" style="text;strokeColor=none;fillColor=none;align=left;verticalAlign=top;spacingLeft=4;spacingRight=4;overflow=hidden;rotatable=0;points=[[0,0.5],[1,0.5]];portConstraint=eastwest;" vertex="1" parent="feedback-table">
          <mxGeometry y="92" width="160" height="22" as="geometry" />
        </mxCell>
        <mxCell id="feedback-message" value="message (text)" style="text;strokeColor=none;fillColor=none;align=left;verticalAlign=top;spacingLeft=4;spacingRight=4;overflow=hidden;rotatable=0;points=[[0,0.5],[1,0.5]];portConstraint=eastwest;" vertex="1" parent="feedback-table">
          <mxGeometry y="114" width="160" height="22" as="geometry" />
        </mxCell>
        <mxCell id="feedback-satisfaction" value="satisfaction (int)" style="text;strokeColor=none;fillColor=none;align=left;verticalAlign=top;spacingLeft=4;spacingRight=4;overflow=hidden;rotatable=0;points=[[0,0.5],[1,0.5]];portConstraint=eastwest;" vertex="1" parent="feedback-table">
          <mxGeometry y="136" width="160" height="22" as="geometry" />
        </mxCell>
        <mxCell id="feedback-created" value="created_at (timestamp)" style="text;strokeColor=none;fillColor=none;align=left;verticalAlign=top;spacingLeft=4;spacingRight=4;overflow=hidden;rotatable=0;points=[[0,0.5],[1,0.5]];portConstraint=eastwest;" vertex="1" parent="feedback-table">
          <mxGeometry y="158" width="160" height="22" as="geometry" />
        </mxCell>

        <!-- Relationships -->
        <!-- Users to Residents -->
        <mxCell id="rel-users-residents" value="" style="endArrow=ERone;html=1;rounded=0;exitX=1;exitY=0.5;exitDx=0;exitDy=0;entryX=0;entryY=0.5;entryDx=0;entryDy=0;startArrow=ERone;startFill=0;endFill=0;" edge="1" parent="1" source="users-id" target="residents-user-id">
          <mxGeometry width="50" height="50" relative="1" as="geometry">
            <mxPoint x="240" y="200" as="sourcePoint" />
            <mxPoint x="290" y="150" as="targetPoint" />
          </mxGeometry>
        </mxCell>

        <!-- Residents to Reports -->
        <mxCell id="rel-residents-reports" value="" style="endArrow=ERmany;html=1;rounded=0;exitX=0.5;exitY=1;exitDx=0;exitDy=0;entryX=0.5;entryY=0;entryDx=0;entryDy=0;startArrow=ERone;startFill=0;endFill=0;" edge="1" parent="1" source="residents-table" target="reports-table">
          <mxGeometry width="50" height="50" relative="1" as="geometry">
            <mxPoint x="360" y="230" as="sourcePoint" />
            <mxPoint x="360" y="280" as="targetPoint" />
          </mxGeometry>
        </mxCell>

        <!-- Categories to Reports -->
        <mxCell id="rel-categories-reports" value="" style="endArrow=ERmany;html=1;rounded=0;exitX=1;exitY=0.5;exitDx=0;exitDy=0;entryX=0;entryY=0.5;entryDx=0;entryDy=0;startArrow=ERone;startFill=0;endFill=0;" edge="1" parent="1" source="categories-id" target="reports-category-id">
          <mxGeometry width="50" height="50" relative="1" as="geometry">
            <mxPoint x="210" y="306" as="sourcePoint" />
            <mxPoint x="280" y="372" as="targetPoint" />
          </mxGeometry>
        </mxCell>

        <!-- Reports to Statuses -->
        <mxCell id="rel-reports-statuses" value="" style="endArrow=ERmany;html=1;rounded=0;exitX=1;exitY=0.5;exitDx=0;exitDy=0;entryX=0;entryY=0.5;entryDx=0;entryDy=0;startArrow=ERone;startFill=0;endFill=0;" edge="1" parent="1" source="reports-id" target="statuses-report-id">
          <mxGeometry width="50" height="50" relative="1" as="geometry">
            <mxPoint x="460" y="306" as="sourcePoint" />
            <mxPoint x="520" y="328" as="targetPoint" />
          </mxGeometry>
        </mxCell>

        <!-- Reports to Feedback -->
        <mxCell id="rel-reports-feedback" value="" style="endArrow=ERmany;html=1;rounded=0;exitX=1;exitY=0.5;exitDx=0;exitDy=0;entryX=0;entryY=0.5;entryDx=0;entryDy=0;startArrow=ERone;startFill=0;endFill=0;" edge="1" parent="1" source="reports-id" target="feedback-report-id">
          <mxGeometry width="50" height="50" relative="1" as="geometry">
            <mxPoint x="460" y="306" as="sourcePoint" />
            <mxPoint x="520" y="98" as="targetPoint" />
          </mxGeometry>
        </mxCell>

        <!-- Users to Feedback -->
        <mxCell id="rel-users-feedback" value="" style="endArrow=ERmany;html=1;rounded=0;exitX=1;exitY=0.5;exitDx=0;exitDy=0;entryX=0;entryY=0.5;entryDx=0;entryDy=0;startArrow=ERone;startFill=0;endFill=0;" edge="1" parent="1" source="users-id" target="feedback-user-id">
          <mxGeometry width="50" height="50" relative="1" as="geometry">
            <mxPoint x="210" y="87" as="sourcePoint" />
            <mxPoint x="520" y="120" as="targetPoint" />
          </mxGeometry>
        </mxCell>

        <!-- Legend -->
        <mxCell id="legend" value="Legend" style="swimlane;fontStyle=1;align=center;verticalAlign=top;childLayout=stackLayout;horizontal=1;startSize=26;horizontalStack=0;resizeParent=1;resizeParentMax=0;resizeLast=0;collapsible=1;marginBottom=0;fillColor=#f5f5f5;strokeColor=#666666;" vertex="1" parent="1">
          <mxGeometry x="750" y="50" width="200" height="136" as="geometry" />
        </mxCell>
        <mxCell id="legend-pk" value="ðŸ”‘ Primary Key" style="text;strokeColor=none;fillColor=none;align=left;verticalAlign=top;spacingLeft=4;spacingRight=4;overflow=hidden;rotatable=0;points=[[0,0.5],[1,0.5]];portConstraint=eastwest;fontStyle=1" vertex="1" parent="legend">
          <mxGeometry y="26" width="200" height="22" as="geometry" />
        </mxCell>
        <mxCell id="legend-fk" value="ðŸ”— Foreign Key" style="text;strokeColor=none;fillColor=none;align=left;verticalAlign=top;spacingLeft=4;spacingRight=4;overflow=hidden;rotatable=0;points=[[0,0.5],[1,0.5]];portConstraint=eastwest;fontStyle=2" vertex="1" parent="legend">
          <mxGeometry y="48" width="200" height="22" as="geometry" />
        </mxCell>
        <mxCell id="legend-one" value="One-to-One Relationship" style="text;strokeColor=none;fillColor=none;align=left;verticalAlign=top;spacingLeft=4;spacingRight=4;overflow=hidden;rotatable=0;points=[[0,0.5],[1,0.5]];portConstraint=eastwest;" vertex="1" parent="legend">
          <mxGeometry y="70" width="200" height="22" as="geometry" />
        </mxCell>
        <mxCell id="legend-many" value="One-to-Many Relationship" style="text;strokeColor=none;fillColor=none;align=left;verticalAlign=top;spacingLeft=4;spacingRight=4;overflow=hidden;rotatable=0;points=[[0,0.5],[1,0.5]];portConstraint=eastwest;" vertex="1" parent="legend">
          <mxGeometry y="92" width="200" height="22" as="geometry" />
        </mxCell>
        <mxCell id="legend-soft" value="Soft Delete (deleted_at)" style="text;strokeColor=none;fillColor=none;align=left;verticalAlign=top;spacingLeft=4;spacingRight=4;overflow=hidden;rotatable=0;points=[[0,0.5],[1,0.5]];portConstraint=eastwest;" vertex="1" parent="legend">
          <mxGeometry y="114" width="200" height="22" as="geometry" />
        </mxCell>

        <!-- Title -->
        <mxCell id="title" value="Database Structure - Sistem Laporan Warga" style="text;html=1;strokeColor=none;fillColor=none;align=center;verticalAlign=middle;whiteSpace=wrap;rounded=0;fontSize=16;fontStyle=1;" vertex="1" parent="1">
          <mxGeometry x="350" y="10" width="350" height="30" as="geometry" />
        </mxCell>

      </root>
    </mxGraphModel>
  </diagram>
</mxfile>